<svg width="512" height="512" viewBox="0 0 512 512" fill="none" xmlns="http://www.w3.org/2000/svg">
<path d="M366.618 106.502C346.08 45.2252 282.653 11.1686 240.928 25.1001C199.203 39.0315 169.077 104.324 189.615 165.6C208.627 222.319 266.233 255.063 305.863 249.22C305.577 249.716 305.389 250.262 305.308 250.829L304.097 260.916C304.004 261.685 304.11 262.464 304.405 263.181C304.699 263.897 305.173 264.527 305.779 265.01C306.386 265.492 307.106 265.812 307.872 265.939C308.637 266.065 309.423 265.995 310.153 265.733L330.567 258.428C331.297 258.167 331.949 257.723 332.459 257.14C332.97 256.557 333.322 255.853 333.483 255.095C333.645 254.338 333.609 253.551 333.381 252.811C333.152 252.071 332.737 251.402 332.176 250.867L324.818 243.847C324.556 243.608 324.267 243.4 323.957 243.229C359.303 224.218 385.671 163.344 366.618 106.502Z" fill="#F2F2F2"/>
<path d="M291.625 61.13C308.716 69.9475 321.768 84.9878 328.087 103.147C334.406 121.305 333.51 141.196 325.583 158.714C323.813 162.741 330.322 164.86 332.081 160.858C340.403 141.904 341.249 120.506 334.45 100.954C327.651 81.4026 313.709 65.1434 295.421 55.4372C291.561 53.3924 287.736 59.07 291.625 61.13Z" fill="white"/>
<path d="M317.902 297.078C315.239 214.819 258.9 149.889 192.066 152.053C43.3214 156.46 39.689 429.236 183.297 448.83L180.257 473L224.61 471.564L220.013 447.641C277.783 434.872 320.317 371.656 317.902 297.078Z" fill="#FF6584"/>
<path d="M118 342.46L101.689 343C95.2944 311.934 94.2816 279.963 98.6962 248.54L115.008 248C108.983 280.894 109.98 312.38 118 342.46Z" fill="white"/>
<path d="M226.534 447.038L176.369 448.662L176.73 459.809L226.895 458.185L226.534 447.038Z" fill="#3F3D56"/>
<path d="M420.243 366.612C450.617 290.347 424.895 208.56 362.793 183.937C224.742 128.761 112.603 376.698 236.373 451.772L223.946 472.659L265.158 489L270.489 465.299C328.516 476.619 392.706 435.755 420.243 366.612Z" fill="#6C63FF"/>
<path d="M219.376 329L204 322.775C210.358 291.348 222.077 261.301 238.624 234L254 240.225C235.374 268.225 223.833 297.817 219.376 329Z" fill="white"/>
<path d="M230.418 449.163L226.3 459.528L272.943 478.063L277.062 467.698L230.418 449.163Z" fill="#3F3D56"/>
</svg>
